<mxfile host="app.diagrams.net" modified="2022-07-01T05:11:32.319Z" agent="5.0 (Windows NT 10.0; Win64; x64) AppleWebKit/537.36 (KHTML, like Gecko) Chrome/103.0.0.0 Safari/537.36" etag="tkBMvax7mNL95xVnkq0Q" version="20.0.4" type="github">
  <diagram id="5SQEX5OZu4yzM7Y-_WrG" name="Page-1">
    <mxGraphModel dx="1038" dy="539" grid="1" gridSize="10" guides="1" tooltips="1" connect="1" arrows="1" fold="1" page="1" pageScale="1" pageWidth="400" pageHeight="150" math="0" shadow="0">
      <root>
        <mxCell id="0" />
        <mxCell id="1" parent="0" />
        <mxCell id="2Y1i4AbgeI_l4BThE696-1" value="부모클래스 변수" style="rounded=0;whiteSpace=wrap;html=1;strokeWidth=0;" vertex="1" parent="1">
          <mxGeometry x="25" y="60" width="120" height="60" as="geometry" />
        </mxCell>
        <mxCell id="2Y1i4AbgeI_l4BThE696-4" value="자동 타입 변환" style="edgeStyle=orthogonalEdgeStyle;rounded=0;orthogonalLoop=1;jettySize=auto;html=1;entryX=0.5;entryY=0;entryDx=0;entryDy=0;" edge="1" parent="1" source="2Y1i4AbgeI_l4BThE696-2" target="2Y1i4AbgeI_l4BThE696-1">
          <mxGeometry relative="1" as="geometry">
            <Array as="points">
              <mxPoint x="315" y="30" />
              <mxPoint x="85" y="30" />
            </Array>
          </mxGeometry>
        </mxCell>
        <mxCell id="2Y1i4AbgeI_l4BThE696-2" value="자식클래스타입" style="rounded=0;whiteSpace=wrap;html=1;strokeWidth=0;" vertex="1" parent="1">
          <mxGeometry x="255" y="60" width="120" height="60" as="geometry" />
        </mxCell>
        <mxCell id="2Y1i4AbgeI_l4BThE696-3" value="=" style="rounded=0;whiteSpace=wrap;html=1;strokeWidth=0;" vertex="1" parent="1">
          <mxGeometry x="165" y="70" width="70" height="40" as="geometry" />
        </mxCell>
      </root>
    </mxGraphModel>
  </diagram>
</mxfile>
